<svg width="15" height="15" viewBox="0 0 15 15" fill="none" xmlns="http://www.w3.org/2000/svg">
<g clip-path="url(#clip0_706_2)">
<path d="M7.875 2.93703C7.82628 2.93756 7.77793 2.92849 7.73272 2.91033C7.6875 2.89217 7.64631 2.86529 7.61149 2.83121C7.57666 2.79713 7.54889 2.75652 7.52977 2.71171C7.51064 2.6669 7.50052 2.61876 7.5 2.57003C7.5 1.15003 8.676 3.39488e-05 10.124 3.39488e-05C10.1728 -0.000626554 10.2212 0.00835683 10.2664 0.0264676C10.3117 0.0445784 10.353 0.0714594 10.3878 0.105565C10.4227 0.139671 10.4504 0.180328 10.4695 0.225201C10.4886 0.270073 10.4986 0.318274 10.499 0.367034C10.499 1.78703 9.324 2.93703 7.875 2.93703Z" fill="black"/>
<path d="M7.875 2.93703C7.82628 2.93756 7.77793 2.92849 7.73272 2.91033C7.6875 2.89217 7.64631 2.86529 7.61149 2.83121C7.57666 2.79713 7.54889 2.75652 7.52977 2.71171C7.51064 2.6669 7.50052 2.61876 7.5 2.57003C7.5 1.15003 8.676 3.39488e-05 10.124 3.39488e-05C10.1728 -0.000626554 10.2212 0.00835683 10.2664 0.0264676C10.3117 0.0445784 10.353 0.0714594 10.3878 0.105565C10.4227 0.139671 10.4504 0.180328 10.4695 0.225201C10.4886 0.270073 10.4986 0.318274 10.499 0.367034C10.499 1.78703 9.324 2.93703 7.875 2.93703ZM13.35 10.668C13.495 10.774 13.542 10.968 13.46 11.126C12.14 13.712 11.087 15 10.125 15C9.677 15 9.237 14.858 8.808 14.582C8.50009 14.3843 8.14353 14.2756 7.7777 14.2679C7.41188 14.2601 7.05102 14.3536 6.735 14.538C6.215 14.843 5.72 15 5.25 15C3.835 15 1.5 10.733 1.5 8.39203C1.5 5.89203 2.839 3.98603 4.875 3.98603C5.833 3.98603 6.66 4.12403 7.355 4.40503C7.649 4.52303 7.982 4.51503 8.269 4.38003C8.833 4.11403 9.577 3.98603 10.499 3.98603C11.626 3.98603 12.609 4.53603 13.425 5.60103C13.4545 5.63944 13.476 5.68338 13.4883 5.73025C13.5005 5.77712 13.5032 5.82596 13.4962 5.87389C13.4892 5.92182 13.4726 5.96786 13.4475 6.00928C13.4224 6.0507 13.3893 6.08666 13.35 6.11503C12.439 6.78503 12 7.53603 12 8.39203C12 9.24703 12.439 9.99903 13.35 10.668Z" fill="black"/>
<path d="M13.35 10.6681C13.495 10.7741 13.542 10.9681 13.46 11.1261C12.14 13.7121 11.087 15.0001 10.125 15.0001C9.677 15.0001 9.237 14.8581 8.808 14.5821C8.50009 14.3844 8.14353 14.2757 7.7777 14.2679C7.41188 14.2601 7.05102 14.3536 6.735 14.5381C6.215 14.8431 5.72 15.0001 5.25 15.0001C3.835 15.0001 1.5 10.7331 1.5 8.39208C1.5 5.89208 2.839 3.98608 4.875 3.98608C5.833 3.98608 6.66 4.12408 7.355 4.40508C7.649 4.52308 7.982 4.51508 8.269 4.38008C8.833 4.11408 9.577 3.98608 10.499 3.98608C11.626 3.98608 12.609 4.53608 13.425 5.60108C13.4545 5.63949 13.476 5.68343 13.4883 5.7303C13.5005 5.77717 13.5032 5.82601 13.4962 5.87394C13.4892 5.92187 13.4726 5.96791 13.4475 6.00933C13.4224 6.05075 13.3893 6.08671 13.35 6.11508C12.439 6.78508 12 7.53608 12 8.39208C12 9.24708 12.439 9.99908 13.35 10.6681Z" fill="black"/>
</g>
<defs>
<clipPath id="clip0_706_2">
<rect width="15" height="15" fill="white"/>
</clipPath>
</defs>
</svg>
